# xmcd
#
# Track frame offsets: 
#        150
#        13699
#        26679
#        39416
#        49690
#        63039
#        76729
#        89586
#        102457
#        113777
#        124443
#        135614
#        145922
#        157801
#        170219
#        183809
#        195461
#        206732
#        217384
#        229360
#
# Disc length: 3211 seconds
#
# Revision: 2
# Processed by: cddbd v1.5.2PL0 Copyright (c) Steve Scherf et al.
# Submitted via: ExactAudioCopyFreeDBPlugin 1.0
#
DISCID=1f0c8914
DTITLE=Robert Johnson - ABC Of The Blues - Vol. 18 Johnson
DYEAR=2010
DGENRE=Blues
TTITLE0=They're Red Hot
TTITLE1=32-20 Blues
TTITLE2=Preachin' Blues (Up Jumped The Devil)
TTITLE3=Stop Breakin' Down Blues
TTITLE4=I Believe I'll Dust My Broom
TTITLE5=Sweet Home Chicago
TTITLE6=Kindhearted Woman Blues
TTITLE7=Ramblin' On My Mind
TTITLE8=Crossroad Blues
TTITLE9=Malted Milk
TTITLE10=Love In Vain Blues
TTITLE11=Honeymoon Blues
TTITLE12=When You Got A Good Friend
TTITLE13=Travelling Riverside Blues
TTITLE14=Terraplane Blues
TTITLE15=Dead Shrimp Blues
TTITLE16=Walkin' Blues
TTITLE17=From Four Till Late
TTITLE18=Last Fair Deal Goin' Down
TTITLE19=Me And The Devil Blues
EXTD=
EXTT0=
EXTT1=
EXTT2=
EXTT3=
EXTT4=
EXTT5=
EXTT6=
EXTT7=
EXTT8=
EXTT9=
EXTT10=
EXTT11=
EXTT12=
EXTT13=
EXTT14=
EXTT15=
EXTT16=
EXTT17=
EXTT18=
EXTT19=
PLAYORDER=
